<svg id="visual" viewBox="0 0 1920 1080" width="1920" height="1080" xmlns="http://www.w3.org/2000/svg" xmlns:xlink="http://www.w3.org/1999/xlink" version="1.1"><rect x="0" y="0" width="1920" height="1080" fill="#ff0000"></rect><path d="M0 626L32 634.7C64 643.3 128 660.7 192 644.7C256 628.7 320 579.3 384 584.5C448 589.7 512 649.3 576 678.8C640 708.3 704 707.7 768 699.3C832 691 896 675 960 676.3C1024 677.7 1088 696.3 1152 676.3C1216 656.3 1280 597.7 1344 568.3C1408 539 1472 539 1536 544.5C1600 550 1664 561 1728 573.3C1792 585.7 1856 599.3 1888 606.2L1920 613L1920 1081L1888 1081C1856 1081 1792 1081 1728 1081C1664 1081 1600 1081 1536 1081C1472 1081 1408 1081 1344 1081C1280 1081 1216 1081 1152 1081C1088 1081 1024 1081 960 1081C896 1081 832 1081 768 1081C704 1081 640 1081 576 1081C512 1081 448 1081 384 1081C320 1081 256 1081 192 1081C128 1081 64 1081 32 1081L0 1081Z" fill="#ffffff"></path><path d="M0 710L32 707C64 704 128 698 192 685.7C256 673.3 320 654.7 384 666.2C448 677.7 512 719.3 576 723C640 726.7 704 692.3 768 671.3C832 650.3 896 642.7 960 640.2C1024 637.7 1088 640.3 1152 658.7C1216 677 1280 711 1344 735.8C1408 760.7 1472 776.3 1536 784C1600 791.7 1664 791.3 1728 765.8C1792 740.3 1856 689.7 1888 664.3L1920 639L1920 1081L1888 1081C1856 1081 1792 1081 1728 1081C1664 1081 1600 1081 1536 1081C1472 1081 1408 1081 1344 1081C1280 1081 1216 1081 1152 1081C1088 1081 1024 1081 960 1081C896 1081 832 1081 768 1081C704 1081 640 1081 576 1081C512 1081 448 1081 384 1081C320 1081 256 1081 192 1081C128 1081 64 1081 32 1081L0 1081Z" fill="#d5d5d5"></path><path d="M0 812L32 797.8C64 783.7 128 755.3 192 755.3C256 755.3 320 783.7 384 798.8C448 814 512 816 576 808.2C640 800.3 704 782.7 768 769.5C832 756.3 896 747.7 960 748.7C1024 749.7 1088 760.3 1152 775C1216 789.7 1280 808.3 1344 819C1408 829.7 1472 832.3 1536 835.2C1600 838 1664 841 1728 846C1792 851 1856 858 1888 861.5L1920 865L1920 1081L1888 1081C1856 1081 1792 1081 1728 1081C1664 1081 1600 1081 1536 1081C1472 1081 1408 1081 1344 1081C1280 1081 1216 1081 1152 1081C1088 1081 1024 1081 960 1081C896 1081 832 1081 768 1081C704 1081 640 1081 576 1081C512 1081 448 1081 384 1081C320 1081 256 1081 192 1081C128 1081 64 1081 32 1081L0 1081Z" fill="#acacac"></path><path d="M0 827L32 846.7C64 866.3 128 905.7 192 905.3C256 905 320 865 384 860.8C448 856.7 512 888.3 576 890.3C640 892.3 704 864.7 768 854.7C832 844.7 896 852.3 960 869.2C1024 886 1088 912 1152 916.8C1216 921.7 1280 905.3 1344 896.2C1408 887 1472 885 1536 878.2C1600 871.3 1664 859.7 1728 865.2C1792 870.7 1856 893.3 1888 904.7L1920 916L1920 1081L1888 1081C1856 1081 1792 1081 1728 1081C1664 1081 1600 1081 1536 1081C1472 1081 1408 1081 1344 1081C1280 1081 1216 1081 1152 1081C1088 1081 1024 1081 960 1081C896 1081 832 1081 768 1081C704 1081 640 1081 576 1081C512 1081 448 1081 384 1081C320 1081 256 1081 192 1081C128 1081 64 1081 32 1081L0 1081Z" fill="#858585"></path><path d="M0 977L32 980.5C64 984 128 991 192 986C256 981 320 964 384 955.5C448 947 512 947 576 954.2C640 961.3 704 975.7 768 981.2C832 986.7 896 983.3 960 981.2C1024 979 1088 978 1152 975.2C1216 972.3 1280 967.7 1344 973.7C1408 979.7 1472 996.3 1536 1003.7C1600 1011 1664 1009 1728 1008C1792 1007 1856 1007 1888 1007L1920 1007L1920 1081L1888 1081C1856 1081 1792 1081 1728 1081C1664 1081 1600 1081 1536 1081C1472 1081 1408 1081 1344 1081C1280 1081 1216 1081 1152 1081C1088 1081 1024 1081 960 1081C896 1081 832 1081 768 1081C704 1081 640 1081 576 1081C512 1081 448 1081 384 1081C320 1081 256 1081 192 1081C128 1081 64 1081 32 1081L0 1081Z" fill="#606060"></path></svg>