<svg id="visual" viewBox="0 0 1080 1920" width="1080" height="1920" xmlns="http://www.w3.org/2000/svg" xmlns:xlink="http://www.w3.org/1999/xlink" version="1.1"><rect x="0" y="0" width="1080" height="1920" fill="#ff0000"></rect><path d="M0 1114L18 1129.3C36 1144.7 72 1175.3 108 1146.8C144 1118.3 180 1030.7 216 1039.8C252 1049 288 1155 324 1207.5C360 1260 396 1259 432 1244.3C468 1229.7 504 1201.3 540 1203.7C576 1206 612 1239 648 1203.3C684 1167.7 720 1063.3 756 1011C792 958.7 828 958.3 864 968.2C900 978 936 998 972 1020C1008 1042 1044 1066 1062 1078L1080 1090L1080 1921L1062 1921C1044 1921 1008 1921 972 1921C936 1921 900 1921 864 1921C828 1921 792 1921 756 1921C720 1921 684 1921 648 1921C612 1921 576 1921 540 1921C504 1921 468 1921 432 1921C396 1921 360 1921 324 1921C288 1921 252 1921 216 1921C180 1921 144 1921 108 1921C72 1921 36 1921 18 1921L0 1921Z" fill="#ffffff"></path><path d="M0 1264L18 1258.5C36 1253 72 1242 108 1220C144 1198 180 1165 216 1185.5C252 1206 288 1280 324 1286.3C360 1292.7 396 1231.3 432 1193.8C468 1156.3 504 1142.7 540 1138.3C576 1134 612 1139 648 1171.5C684 1204 720 1264 756 1308.3C792 1352.7 828 1381.3 864 1395.2C900 1409 936 1408 972 1362.5C1008 1317 1044 1227 1062 1182L1080 1137L1080 1921L1062 1921C1044 1921 1008 1921 972 1921C936 1921 900 1921 864 1921C828 1921 792 1921 756 1921C720 1921 684 1921 648 1921C612 1921 576 1921 540 1921C504 1921 468 1921 432 1921C396 1921 360 1921 324 1921C288 1921 252 1921 216 1921C180 1921 144 1921 108 1921C72 1921 36 1921 18 1921L0 1921Z" fill="#d5d5d5"></path><path d="M0 1444L18 1419C36 1394 72 1344 108 1344.2C144 1344.3 180 1394.7 216 1421.5C252 1448.3 288 1451.7 324 1437.5C360 1423.3 396 1391.7 432 1368.3C468 1345 504 1330 540 1332C576 1334 612 1353 648 1379.2C684 1405.3 720 1438.7 756 1457.5C792 1476.3 828 1480.7 864 1485.5C900 1490.3 936 1495.7 972 1504.7C1008 1513.7 1044 1526.3 1062 1532.7L1080 1539L1080 1921L1062 1921C1044 1921 1008 1921 972 1921C936 1921 900 1921 864 1921C828 1921 792 1921 756 1921C720 1921 684 1921 648 1921C612 1921 576 1921 540 1921C504 1921 468 1921 432 1921C396 1921 360 1921 324 1921C288 1921 252 1921 216 1921C180 1921 144 1921 108 1921C72 1921 36 1921 18 1921L0 1921Z" fill="#acacac"></path><path d="M0 1471L18 1505.8C36 1540.7 72 1610.3 108 1609.8C144 1609.3 180 1538.7 216 1531.3C252 1524 288 1580 324 1583.5C360 1587 396 1538 432 1520.2C468 1502.3 504 1515.7 540 1545.5C576 1575.3 612 1621.7 648 1630.3C684 1639 720 1610 756 1593.8C792 1577.7 828 1574.3 864 1562.2C900 1550 936 1529 972 1538.7C1008 1548.3 1044 1588.7 1062 1608.8L1080 1629L1080 1921L1062 1921C1044 1921 1008 1921 972 1921C936 1921 900 1921 864 1921C828 1921 792 1921 756 1921C720 1921 684 1921 648 1921C612 1921 576 1921 540 1921C504 1921 468 1921 432 1921C396 1921 360 1921 324 1921C288 1921 252 1921 216 1921C180 1921 144 1921 108 1921C72 1921 36 1921 18 1921L0 1921Z" fill="#858585"></path><path d="M0 1738L18 1744.2C36 1750.3 72 1762.7 108 1753.8C144 1745 180 1715 216 1699.8C252 1684.7 288 1684.3 324 1696.8C360 1709.3 396 1734.7 432 1744.5C468 1754.3 504 1748.7 540 1744.8C576 1741 612 1739 648 1734C684 1729 720 1721 756 1731.7C792 1742.3 828 1771.7 864 1784.8C900 1798 936 1795 972 1793.2C1008 1791.3 1044 1790.7 1062 1790.3L1080 1790L1080 1921L1062 1921C1044 1921 1008 1921 972 1921C936 1921 900 1921 864 1921C828 1921 792 1921 756 1921C720 1921 684 1921 648 1921C612 1921 576 1921 540 1921C504 1921 468 1921 432 1921C396 1921 360 1921 324 1921C288 1921 252 1921 216 1921C180 1921 144 1921 108 1921C72 1921 36 1921 18 1921L0 1921Z" fill="#606060"></path></svg>